<svg xmlns="http://www.w3.org/2000/svg" viewBox="0 0 22.9 28.58"><defs><style>.cls-1{fill:#aecdda;}.cls-1,.cls-2,.cls-3{stroke:#00588a;stroke-linecap:round;stroke-linejoin:round;}.cls-2{fill:none;}.cls-3{fill:#fff;}.cls-4{fill:#00588a;}</style></defs><g id="Layer_2" data-name="Layer 2"><g id="Layer_1-2" data-name="Layer 1"><path class="cls-1" d="M3.63,27.31,9,19.11a10,10,0,0,1-1.51-.8A8.68,8.68,0,0,1,6.1,17.25L.77,25.45a1.71,1.71,0,0,0,2.86,1.86Z"/><line class="cls-2" x1="4.67" y1="19.81" x2="6.96" y2="21.3"/><line class="cls-2" x1="3.79" y1="21.66" x2="5.86" y2="23.01"/><circle class="cls-2" cx="12.71" cy="10.19" r="7.85" transform="translate(-2.56 15.86) rotate(-59.08)"/><path class="cls-1" d="M18,2.06a9.69,9.69,0,1,0,2.85,13.4A9.7,9.7,0,0,0,18,2.06Z"/><path class="cls-3" d="M19.29,14.46A7.84,7.84,0,1,1,17,3.61,7.85,7.85,0,0,1,19.29,14.46Z"/><path class="cls-2" d="M8.11,7.2a5.47,5.47,0,0,1,3.34-2.36"/><path class="cls-2" d="M18.12,11.15a5.49,5.49,0,0,1-7.38,4.16"/><path class="cls-4" d="M13.07,4.84a.53.53,0,0,0,1.06,0,.53.53,0,0,0-1.06,0Z"/></g></g></svg>