<svg xmlns="http://www.w3.org/2000/svg" xmlns:xlink="http://www.w3.org/1999/xlink" viewBox="0 0 35.65 39.41"><defs><style>.cls-1,.cls-4{fill:none;}.cls-2{clip-path:url(#clip-path);}.cls-3{fill:#aecdda;}.cls-3,.cls-4{stroke:#00588a;stroke-linecap:round;stroke-linejoin:round;}.cls-5{fill:#00588a;}</style><clipPath id="clip-path" transform="translate(-2.36 -2.42)"><circle class="cls-1" cx="20.18" cy="20.18" r="20.18"/></clipPath></defs><g id="Layer_2" data-name="Layer 2"><g id="Layer_1-2" data-name="Layer 1"><g class="cls-2"><polygon class="cls-3" points="17.83 0.5 15.65 15.38 20 15.38 17.83 0.5"/><polygon class="cls-3" points="0.5 20.26 16.37 13.66 17.49 17.69 0.5 20.26"/><line class="cls-4" x1="16.77" y1="16.22" x2="14.65" y2="38.91"/><line class="cls-4" x1="18.89" y1="16.22" x2="21" y2="38.91"/><polygon class="cls-3" points="35.15 20.26 19.29 13.66 18.16 17.69 35.15 20.26"/><circle class="cls-3" cx="20.18" cy="18.48" r="3.17" transform="translate(-2.96 -1.73) rotate(-1.91)"/><path class="cls-4" d="M28.8,24a10.32,10.32,0,0,1-4.43,3.84" transform="translate(-2.36 -2.42)"/><path class="cls-4" d="M23.66,8.86a10.22,10.22,0,0,1,6.46,7.19" transform="translate(-2.36 -2.42)"/><path class="cls-4" d="M10.1,16.7A10.28,10.28,0,0,1,16,9.14" transform="translate(-2.36 -2.42)"/><polyline class="cls-4" points="28.7 13.39 28.34 13.92 27.99 14.45 27.41 14.17 26.84 13.89"/><polyline class="cls-4" points="12.79 5.98 13.34 6.29 13.89 6.61 13.66 7.21 13.42 7.8"/><path class="cls-4" d="M11.57,24A10.24,10.24,0,0,0,16,27.81" transform="translate(-2.36 -2.42)"/><circle class="cls-5" cx="20.18" cy="18.48" r="0.53" transform="translate(-0.9 36.02) rotate(-89.3)"/></g></g></g></svg>