<svg xmlns="http://www.w3.org/2000/svg" viewBox="0 0 30.03 27.35"><defs><style>.cls-1{fill:none;}.cls-1,.cls-2{stroke:#00588a;stroke-linecap:round;stroke-linejoin:round;}.cls-2{fill:#aecdda;}</style></defs><g id="Layer_2" data-name="Layer 2"><g id="Layer_1-2" data-name="Layer 1"><polyline class="cls-1" points="15.02 25.64 0.5 25.64 6.59 15.1"/><polyline class="cls-1" points="22.27 13.07 29.53 25.64 18.05 25.64"/><polyline class="cls-1" points="7.76 13.07 15.02 0.5 20.76 10.45"/><path class="cls-2" d="M17.61,13.72H16.45a1.44,1.44,0,0,1-2.86,0H12.42l-2.21,1.59.71,2,1.93-.67V20.8h4.33V16.59l1.93.67.72-2Z"/><polyline class="cls-1" points="5.01 15.4 5.79 15.25 6.58 15.1 6.84 15.86 7.11 16.61"/><polyline class="cls-1" points="21.65 9.65 21.41 10.42 21.17 11.18 20.38 11.05 19.59 10.93"/><polyline class="cls-1" points="18.59 26.85 18.05 26.26 17.52 25.67 18.03 25.05 18.54 24.43"/></g></g></svg>