<svg xmlns="http://www.w3.org/2000/svg" viewBox="0 0 35.06 16.9"><defs><style>.cls-1{fill:none;}.cls-1,.cls-3,.cls-4{stroke:#00588a;stroke-linecap:round;stroke-linejoin:round;}.cls-2{fill:#00588a;}.cls-3{fill:#aecdda;}.cls-4{fill:#fff;}</style></defs><g id="Layer_2" data-name="Layer 2"><g id="Layer_1-2" data-name="Layer 1"><line class="cls-1" x1="8.32" y1="14.72" x2="3.06" y2="14.72"/><circle class="cls-2" cx="0.98" cy="14.72" r="0.53"/><line class="cls-1" x1="32.46" y1="16.37" x2="19.07" y2="16.37"/><polygon class="cls-1" points="7.28 0.5 3.52 0.5 0.5 0.5 0.5 1.47 3.23 2.9 3.23 9.37 3.52 9.37 7.28 9.37 7.58 9.37 7.58 2.9 10.3 1.47 10.3 0.5 7.28 0.5"/><rect class="cls-3" x="4.78" y="2.65" width="8.59" height="3.36"/><rect class="cls-3" x="13.37" y="2.65" width="8.59" height="3.36"/><rect class="cls-3" x="21.96" y="2.65" width="8.59" height="3.36"/><line class="cls-1" x1="6.62" y1="4" x2="6.62" y2="4.65"/><line class="cls-1" x1="9.02" y1="4" x2="9.02" y2="4.65"/><line class="cls-1" x1="11.41" y1="4" x2="11.41" y2="4.65"/><line class="cls-1" x1="15.27" y1="4" x2="15.27" y2="4.65"/><line class="cls-1" x1="17.66" y1="4" x2="17.66" y2="4.65"/><line class="cls-1" x1="20.06" y1="4" x2="20.06" y2="4.65"/><line class="cls-1" x1="23.86" y1="4" x2="23.86" y2="4.65"/><line class="cls-1" x1="26.25" y1="4" x2="26.25" y2="4.65"/><line class="cls-1" x1="28.65" y1="4" x2="28.65" y2="4.65"/><rect class="cls-3" x="4.78" y="6.01" width="8.59" height="3.36"/><rect class="cls-3" x="13.37" y="6.01" width="8.59" height="3.36"/><rect class="cls-3" x="21.96" y="6.01" width="8.59" height="3.36"/><line class="cls-1" x1="6.62" y1="7.36" x2="6.62" y2="8.01"/><line class="cls-1" x1="9.02" y1="7.36" x2="9.02" y2="8.01"/><line class="cls-1" x1="11.41" y1="7.36" x2="11.41" y2="8.01"/><line class="cls-1" x1="15.27" y1="7.36" x2="15.27" y2="8.01"/><line class="cls-1" x1="17.66" y1="7.36" x2="17.66" y2="8.01"/><line class="cls-1" x1="20.06" y1="7.36" x2="20.06" y2="8.01"/><line class="cls-1" x1="23.86" y1="7.36" x2="23.86" y2="8.01"/><line class="cls-1" x1="26.25" y1="7.36" x2="26.25" y2="8.01"/><line class="cls-1" x1="28.65" y1="7.36" x2="28.65" y2="8.01"/><path class="cls-4" d="M2.05,9.37s-.23,1,1.81,2.17a11.9,11.9,0,0,1,3.47,3.18H27.57s6.25-1.75,7-7H28.7c-1.65,0-2.33,1.68-4,1.68Z"/><line class="cls-1" x1="31.65" y1="7.69" x2="32.84" y2="2.27"/><line class="cls-1" x1="34.03" y1="7.69" x2="32.84" y2="2.27"/><line class="cls-1" x1="32.46" y1="1.47" x2="33.22" y2="1.47"/><path class="cls-2" d="M28.76,9.73a.36.36,0,0,1-.36-.36.36.36,0,1,1,.72,0A.36.36,0,0,1,28.76,9.73Z"/><circle class="cls-2" cx="30.31" cy="9.37" r="0.36"/><circle class="cls-2" cx="31.86" cy="9.37" r="0.36"/><line class="cls-1" x1="33.05" y1="14.72" x2="25.04" y2="14.72"/><circle class="cls-2" cx="17.17" cy="16.37" r="0.53"/></g></g></svg>