<svg xmlns="http://www.w3.org/2000/svg" viewBox="0 0 27.53 21.5"><defs><style>.cls-1{fill:none;}.cls-1,.cls-2{stroke:#00588a;stroke-linecap:round;stroke-linejoin:round;}.cls-2{fill:#aecdda;}.cls-3{fill:#00588a;}</style></defs><g id="Layer_2" data-name="Layer 2"><g id="Layer_1-2" data-name="Layer 1"><rect class="cls-1" x="3.14" y="8.17" width="2.49" height="12.82"/><path class="cls-2" d="M.5,6.37v3.85s15.37,2.13,20.77,5.87V.5C15.87,4.24.5,6.37.5,6.37Z"/><line class="cls-1" x1="2.1" y1="6.14" x2="2.1" y2="10.45"/><line class="cls-1" x1="23.68" y1="8.28" x2="25.23" y2="8.28"/><circle class="cls-3" cx="27" cy="8.29" r="0.53"/><line class="cls-1" x1="23.66" y1="5.98" x2="25.27" y2="4.98"/><path class="cls-3" d="M27.07,4.51a.53.53,0,0,1-.56-.9.53.53,0,0,1,.73.17A.54.54,0,0,1,27.07,4.51Z"/><line class="cls-1" x1="23.66" y1="10.61" x2="25.27" y2="11.61"/><path class="cls-3" d="M27.07,12.08a.53.53,0,0,0-.56.9.53.53,0,0,0,.73-.17A.54.54,0,0,0,27.07,12.08Z"/><line class="cls-1" x1="3.14" y1="17.92" x2="5.63" y2="17.92"/><line class="cls-1" x1="3.14" y1="16.09" x2="5.63" y2="16.09"/></g></g></svg>